<?xml version="1.0" standalone="no"?>
<!DOCTYPE svg PUBLIC "-//W3C//DTD SVG 20010904//EN"
 "http://www.w3.org/TR/2001/REC-SVG-20010904/DTD/svg10.dtd">
<svg version="1.0" xmlns="http://www.w3.org/2000/svg"
 width="391.000000pt" height="391.000000pt" viewBox="0 0 391.000000 391.000000"
 preserveAspectRatio="xMidYMid meet">
<metadata>
Created by potrace 1.11, written by Peter Selinger 2001-2013
</metadata>
<g transform="translate(0.000000,391.000000) scale(0.100000,-0.100000)"
fill="#000000" stroke="none">
<path d="M1090 3812 c-17 -8 -35 -23 -40 -32 -14 -26 12 -44 47 -34 16 4 36 8
46 8 41 2 42 61 2 69 -13 2 -38 -3 -55 -11z"/>
<path d="M2214 3480 c-50 -11 -126 -53 -166 -92 -93 -93 -128 -195 -132 -385
-3 -140 -10 -166 -59 -198 -55 -35 -103 -23 -136 35 -28 50 -28 106 -1 120 33
17 75 9 75 -15 0 -11 3 -25 7 -30 9 -15 -7 -39 -21 -31 -6 4 -11 16 -11 27 0
23 -13 25 -34 4 -29 -29 -8 -48 46 -43 92 9 129 80 67 132 -17 14 -38 26 -47
27 -9 0 -24 2 -33 4 -25 4 -93 -29 -115 -56 -10 -14 -30 -25 -44 -25 -14 0
-32 -4 -41 -8 -13 -6 -21 3 -35 41 -10 26 -18 49 -19 51 -1 1 -67 -20 -146
-47 -121 -41 -143 -52 -141 -68 5 -22 324 -976 329 -983 5 -6 293 90 293 98 0
4 -7 28 -15 54 l-14 47 35 7 c19 3 34 12 34 20 0 10 6 11 29 3 65 -23 143 11
171 73 20 46 17 72 -13 93 -29 20 -65 19 -107 -4 -25 -13 -35 -25 -35 -42 0
-17 5 -24 18 -23 52 4 50 3 33 20 -9 8 -16 22 -16 30 0 12 4 12 20 4 11 -6 18
-15 15 -20 -3 -5 2 -13 11 -18 22 -12 3 -49 -30 -58 -54 -13 -102 53 -91 124
7 45 18 58 60 72 69 23 118 -5 188 -107 29 -42 30 -61 11 -139 -9 -34 -228
-180 -281 -186 -52 -6 -54 -8 -143 -94 -41 -40 -90 -86 -109 -103 l-33 -31 33
6 c33 6 32 4 -47 -77 -255 -264 -523 -668 -682 -1029 -11 -25 -29 -67 -42 -95
-41 -93 -164 -437 -175 -492 -3 -12 -10 -34 -15 -48 l-10 -25 823 2 c791 3
823 4 862 22 22 11 45 22 50 24 6 3 2 -4 -7 -15 -10 -11 -18 -23 -18 -26 0 -4
81 -7 180 -7 l180 0 -4 32 c-2 18 -4 39 -5 46 -1 9 -33 12 -127 12 l-126 0 58
44 c107 80 127 103 139 162 12 54 18 231 8 237 -10 6 -196 -101 -217 -124 -7
-8 -20 -41 -30 -74 -20 -67 -64 -155 -101 -199 -22 -27 -28 -29 -95 -30 -71
-1 -72 -1 -102 37 -17 21 -61 61 -97 90 -59 46 -66 57 -68 90 -3 40 2 44 31
22 38 -29 49 -16 17 20 -31 35 -35 47 -33 95 3 62 30 81 146 100 37 6 80 18
95 28 30 19 101 87 101 96 0 4 11 24 25 44 l26 37 -6 -60 -6 -60 20 32 c26 41
38 112 34 193 l-3 65 17 -35 17 -35 5 45 c19 149 -57 308 -169 356 -50 22
-121 -7 -170 -68 l-33 -40 -14 33 c-20 47 -52 79 -80 79 -54 0 -142 -70 -211
-168 -29 -40 -28 -45 9 -27 17 9 33 14 36 11 10 -9 -26 -55 -55 -70 -15 -8
-44 -32 -65 -53 -35 -37 -37 -41 -26 -72 25 -72 -8 -205 -71 -280 l-20 -23
-21 26 c-11 14 -27 26 -35 26 -12 0 -18 35 -16 110 3 181 75 377 214 584 43
62 210 286 215 286 3 0 11 -7 17 -16 10 -13 22 -1 76 81 35 53 64 106 65 116
1 11 15 34 31 51 136 149 193 207 203 209 3 0 15 3 26 5 11 3 72 6 135 8 144
3 203 22 264 81 79 76 85 179 15 251 -24 25 -27 33 -15 37 8 3 20 -1 26 -9 26
-31 92 -3 85 36 -10 51 -275 824 -288 837 -23 23 -63 9 -75 -27 -16 -44 -31
-37 -27 13 10 125 -112 216 -251 187z m113 -69 c42 -18 66 -57 67 -108 1 -60
-28 -86 -84 -77 -23 4 -40 2 -44 -5 -12 -19 4 -51 30 -57 30 -8 30 -9 -3 -48
-32 -38 -68 -116 -77 -171 -11 -56 -53 -131 -93 -161 -64 -49 -165 -77 -241
-67 -42 6 -59 23 -22 23 27 0 90 58 108 100 10 23 16 74 18 150 3 172 16 237
62 304 37 54 92 96 153 116 56 19 82 19 126 1z m-79 -815 c18 -4 61 -29 96
-54 94 -71 150 -102 185 -102 9 0 22 -4 29 -9 10 -6 10 -10 -3 -21 -17 -14
-20 -56 -5 -65 17 -10 49 5 55 26 10 30 70 26 100 -7 47 -50 44 -120 -6 -172
-33 -33 -70 -48 -137 -56 -36 -4 -42 -3 -33 8 15 18 4 44 -27 60 -18 9 -38 41
-67 107 -36 82 -45 94 -68 97 -39 5 -134 -25 -147 -46 -9 -16 -12 -15 -31 8
-84 101 -118 120 -207 115 l-63 -2 23 24 c71 76 199 113 306 89z m-332 -2133
c-2 -3 -1 -16 4 -29 7 -19 6 -24 -5 -24 -10 0 -15 11 -15 36 0 22 4 33 11 29
6 -4 8 -9 5 -12z m-42 -28 c4 -10 -1 -15 -14 -15 -13 0 -18 5 -14 15 4 8 10
15 14 15 4 0 10 -7 14 -15z"/>
<path d="M3695 3412 c-3 -3 -5 -16 -5 -29 0 -24 4 -27 53 -37 25 -6 27 -4 27
29 0 19 -3 35 -7 36 -36 5 -64 5 -68 1z"/>
<path d="M3671 2570 c-90 -66 -123 -113 -98 -137 20 -20 94 -19 152 3 18 6 17
4 -5 -22 -50 -59 -72 -115 -59 -152 6 -17 15 -22 31 -20 13 2 23 8 23 13 2 38
18 85 35 100 16 15 20 31 20 91 l0 73 -57 -20 -58 -19 27 25 c15 14 32 25 38
25 5 0 10 4 10 9 0 5 9 13 20 16 15 5 20 15 20 41 0 19 -4 34 -9 34 -5 0 -45
-27 -90 -60z"/>
<path d="M793 1543 c-25 -10 -14 -44 17 -54 17 -6 30 -14 30 -18 0 -4 11 -13
24 -19 26 -12 46 0 46 28 0 35 -81 78 -117 63z"/>
</g>
</svg>
