<?xml version="1.0" standalone="no"?>
<!DOCTYPE svg PUBLIC "-//W3C//DTD SVG 20010904//EN"
 "http://www.w3.org/TR/2001/REC-SVG-20010904/DTD/svg10.dtd">
<svg version="1.0" xmlns="http://www.w3.org/2000/svg"
 width="64px" height="64px" viewBox="0 0 64.000000 64.000000"
 preserveAspectRatio="xMidYMid meet">

<g transform="translate(0.000000,64.000000) scale(0.100000,-0.100000)"
fill="#000000" stroke="none">
<path d="M82 484 c-21 -15 -22 -21 -22 -185 0 -106 4 -169 10 -169 6 0 10 59
10 158 0 110 4 162 12 170 9 9 74 12 230 12 205 0 218 -1 228 -19 5 -11 10
-86 10 -170 0 -94 4 -151 10 -151 6 0 10 63 10 169 0 164 -1 170 -22 185 -33
23 -443 23 -476 0z"/>
<path d="M10 72 c0 -60 8 -62 312 -62 254 0 276 1 291 18 10 10 17 31 17 46
l0 27 -97 -3 c-122 -4 -126 -21 -6 -28 83 -5 86 -6 69 -23 -16 -15 -43 -17
-276 -17 -233 0 -260 2 -276 18 -17 16 -14 17 69 22 48 3 87 9 87 15 0 6 -40
11 -95 13 l-95 3 0 -29z"/>
<path d="M260 85 c0 -12 13 -15 60 -15 47 0 60 3 60 15 0 12 -13 15 -60 15
-47 0 -60 -3 -60 -15z"/>
</g>
</svg>
